<svg width="136" height="56" viewBox="0 0 136 56" fill="none" xmlns="http://www.w3.org/2000/svg">
<path d="M38.4003 31.2911C38.3154 30.6312 38.046 30.0085 37.6229 29.4941C37.1998 28.9797 36.64 28.5943 36.0075 28.3821L35.4894 28.2052C35.1203 28.0959 34.7559 27.9693 34.4065 27.8294L22.0034 23.5233C21.8575 23.4738 21.7131 23.4164 21.5759 23.3543C20.3551 22.811 19.5057 21.866 19.1839 20.6946C18.8377 19.4327 19.1342 18.0521 20.0191 16.8075L31.9625 0L1.54642 21.2087C1.00022 21.5895 0.570126 22.1132 0.303565 22.7222C0.037003 23.3311 -0.0556662 24.0016 0.0357779 24.6598C0.127222 25.3179 0.399226 25.9381 0.82179 26.4518C1.24435 26.9656 1.80106 27.3531 2.4305 27.5715L2.5835 27.625C3.225 27.7931 3.85233 28.011 4.45971 28.2767L16.5072 32.4578C16.65 32.5065 16.7935 32.5631 16.9299 32.6245C18.1508 33.1662 19.0025 34.1104 19.3259 35.2834C19.6737 36.5461 19.3771 37.9282 18.4915 39.1744L6.53387 55.9992L36.8971 34.7425C37.4472 34.3657 37.8799 33.8422 38.1457 33.2319C38.4115 32.6216 38.4997 31.949 38.4003 31.2911Z" fill="white"/>
<path d="M29.4729 7.63958C30.6369 5.30926 31.6511 2.79418 33.1653 0.663559L21.4033 17.2179C20.7156 18.1858 20.4782 19.233 20.7345 20.1678C20.9664 21.0114 21.595 21.6993 22.5074 22.1058C22.6147 22.1538 22.7275 22.1986 22.8426 22.2387L32.2655 25.5101C30.6937 24.3512 29.4167 22.8406 28.5373 21.1C27.6579 19.3593 27.2007 17.4372 27.2023 15.4883C27.2023 13.1792 27.935 10.9597 28.8861 8.86999C29.0748 8.4533 29.2704 8.04317 29.4729 7.63958Z" fill="white"/>
<path d="M9.02693 48.2826C7.89206 50.6514 6.8463 53.2042 5.32025 55.353L17.1083 38.764C17.7968 37.7954 18.0334 36.7466 17.7763 35.8118C17.5436 34.9666 16.9127 34.2787 16.0002 33.8738C15.8922 33.825 15.7826 33.7818 15.6706 33.744L6.27452 30.4852C7.8289 31.6455 9.09046 33.1511 9.95898 34.8824C10.8275 36.6138 11.279 38.5232 11.2778 40.459C11.2778 42.5818 10.6468 44.611 9.81874 46.5498C9.56716 47.1355 9.29981 47.7134 9.02693 48.2826Z" fill="white"/>
<path d="M43.8816 35.1836L45.7688 34.3125C45.9476 34.9598 46.2754 35.4532 46.7523 35.7929C47.2292 36.1325 47.8388 36.3024 48.5812 36.3024C49.2831 36.3024 49.8409 36.1076 50.2547 35.7182C50.6685 35.3288 50.8754 34.8072 50.8754 34.1536C50.8754 33.3019 50.1656 32.5419 48.746 31.8736C48.5473 31.7746 48.3951 31.702 48.2894 31.6559C46.6868 30.8765 45.619 30.1718 45.0859 29.5418C44.5527 28.9117 44.2864 28.141 44.287 27.2295C44.287 26.0486 44.6892 25.0916 45.4936 24.3583C46.298 23.625 47.3525 23.2581 48.6569 23.2576C49.7295 23.2576 50.6267 23.4638 51.3486 23.8763C52.0499 24.2655 52.5832 24.8982 52.847 25.654L51 26.6045C50.7082 26.1495 50.3888 25.8162 50.0418 25.6044C49.68 25.3902 49.2653 25.2812 48.8446 25.2899C48.209 25.2899 47.7039 25.455 47.3296 25.7853C46.9552 26.1155 46.7683 26.5576 46.7689 27.1116C46.7689 27.9827 47.5899 28.7951 49.2318 29.5488C49.358 29.6086 49.4574 29.655 49.5299 29.688C50.9669 30.3474 51.9535 30.9926 52.4898 31.6236C53.0261 32.2547 53.2942 33.0409 53.2942 33.9823C53.2942 35.356 52.8604 36.4468 51.9929 37.2544C51.1254 38.0621 49.9535 38.4665 48.4771 38.4676C47.2389 38.4676 46.2242 38.1837 45.4329 37.6161C44.6416 37.0485 44.1245 36.2376 43.8816 35.1836Z" fill="white"/>
<path d="M56.4236 28.6966V33.9838C56.4236 34.8953 56.6123 35.5489 56.9898 35.9446C57.3673 36.3404 57.9798 36.5382 58.8274 36.5382C59.6744 36.5382 60.2869 36.3404 60.6649 35.9446C61.043 35.5489 61.2315 34.8953 61.2304 33.9838V28.6966H63.3858V33.3407C63.3858 35.1359 63.0251 36.4394 62.3038 37.2513C61.5824 38.0632 60.4302 38.4691 58.8471 38.4691C57.2382 38.4691 56.0729 38.0666 55.351 37.2615C54.6291 36.4564 54.2684 35.1495 54.269 33.3407V28.6966H56.4236Z" fill="white"/>
<path d="M64.5909 42.5008V28.6966H66.7463V30.2313C66.9848 29.6522 67.4092 29.1684 67.9529 28.8554C68.5055 28.5315 69.1659 28.3698 69.934 28.3703C71.1859 28.3703 72.2006 28.8305 72.9782 29.7509C73.7558 30.6713 74.1449 31.881 74.1454 33.38C74.1454 34.9582 73.7632 36.2007 72.9987 37.1074C72.2343 38.0142 71.1864 38.4681 69.8552 38.4691C69.2425 38.4898 68.6348 38.3531 68.0904 38.0723C67.546 37.7914 67.0832 37.3758 66.7463 36.8653V42.4992L64.5909 42.5008ZM66.6769 33.3619C66.6769 34.3321 66.92 35.1076 67.4064 35.6883C67.8927 36.2691 68.5344 36.5592 69.3315 36.5587C70.1464 36.5587 70.7774 36.2879 71.2243 35.7465C71.6712 35.2051 71.8946 34.4362 71.8946 33.4398C71.8946 32.4491 71.6612 31.675 71.1943 31.1173C70.7274 30.5596 70.0868 30.2808 69.2723 30.2808C68.4584 30.2808 67.8231 30.5515 67.3662 31.0929C66.9093 31.6344 66.6806 32.3907 66.68 33.3619H66.6769Z" fill="white"/>
<path d="M85.0226 33.7086H77.4941C77.5467 34.5861 77.8082 35.2708 78.2788 35.763C78.7494 36.2552 79.375 36.501 80.1558 36.5005C80.8514 36.5005 81.4297 36.3553 81.8908 36.0649C82.3519 35.7745 82.7557 35.306 83.1022 34.6592L84.9161 35.6687C84.3861 36.6121 83.7305 37.3152 82.9492 37.7781C82.1679 38.2409 81.2536 38.4718 80.2063 38.4707C78.6968 38.4707 77.4949 38.0121 76.6005 37.0948C75.7062 36.1776 75.2593 34.953 75.2598 33.4209C75.2598 31.9491 75.7217 30.7397 76.6455 29.7925C77.5693 28.8454 78.7562 28.3719 80.2063 28.3719C81.7221 28.3719 82.9051 28.804 83.7552 29.6683C84.6054 30.5326 85.0292 31.7439 85.0265 33.3022L85.0226 33.7086ZM82.7875 32.2628C82.7018 31.5898 82.4437 31.0767 82.0131 30.7234C81.5825 30.3701 80.9931 30.1925 80.2449 30.1904C79.5367 30.1904 78.9673 30.362 78.5367 30.7053C78.1061 31.0486 77.8048 31.5668 77.6329 32.2597L82.7875 32.2628Z" fill="white"/>
<path d="M88.2884 30.1904C88.5203 29.5698 88.8265 29.1109 89.2072 28.8137C89.5879 28.5165 90.0595 28.3682 90.622 28.3687C90.925 28.3685 91.2269 28.4049 91.5211 28.4772C91.8205 28.5515 92.1113 28.6569 92.3886 28.7917L91.6142 30.6134C91.4316 30.4833 91.2285 30.3847 91.0132 30.3217C90.7789 30.2562 90.5365 30.2244 90.2932 30.2273C89.5776 30.2273 89.0645 30.513 88.7537 31.0843C88.443 31.6556 88.2879 32.6156 88.2884 33.9642V38.0831H86.133V28.6785H88.2884V30.1904Z" fill="white"/>
<path d="M94.6284 38.0847V23.5862H102.743V25.5863H96.992V29.2029H102.743V31.2722H96.992V38.0839L94.6284 38.0847Z" fill="white"/>
<path d="M106.017 30.1904C106.249 29.5698 106.556 29.1109 106.936 28.8137C107.317 28.5165 107.788 28.3682 108.351 28.3687C108.654 28.3685 108.956 28.4049 109.25 28.4772C109.55 28.5515 109.84 28.6569 110.118 28.7917L109.343 30.6134C109.161 30.4833 108.958 30.3847 108.742 30.3217C108.508 30.2562 108.265 30.2244 108.022 30.2273C107.307 30.2273 106.794 30.513 106.483 31.0843C106.171 31.6556 106.016 32.6156 106.017 33.9642V38.0831H103.866V28.6785H106.021L106.017 30.1904Z" fill="white"/>
<path d="M120.223 33.7086H112.694C112.747 34.5861 113.01 35.2708 113.483 35.763C113.956 36.2552 114.582 36.501 115.36 36.5005C116.055 36.5005 116.634 36.3553 117.095 36.0649C117.556 35.7745 117.96 35.306 118.307 34.6592L120.121 35.6687C119.591 36.6121 118.936 37.3152 118.155 37.7781C117.374 38.2409 116.456 38.4718 115.403 38.4707C113.894 38.4707 112.692 38.0121 111.798 37.0948C110.904 36.1776 110.458 34.953 110.458 33.4209C110.458 31.9491 110.919 30.7397 111.843 29.7925C112.767 28.8454 113.954 28.3719 115.403 28.3719C116.92 28.3719 118.103 28.804 118.952 29.6683C119.801 30.5326 120.225 31.7439 120.223 33.3022L120.223 33.7086ZM117.988 32.2628C117.903 31.5898 117.644 31.0767 117.213 30.7234C116.782 30.3701 116.193 30.1925 115.446 30.1904C114.737 30.1904 114.167 30.362 113.738 30.7053C113.308 31.0486 113.007 31.5668 112.834 32.2597L117.988 32.2628Z" fill="white"/>
<path d="M121.872 38.0847V30.5835H120.223V28.6966H121.872V25.1437H124.027V28.6966H125.675V30.5835H124.027V38.0886L121.872 38.0847Z" fill="white"/>
<path d="M135.333 33.7086H127.805C127.857 34.5861 128.12 35.2708 128.593 35.763C129.067 36.2552 129.692 36.501 130.47 36.5005C131.166 36.5005 131.744 36.3553 132.205 36.0649C132.667 35.7745 133.071 35.306 133.418 34.6592L135.232 35.6687C134.702 36.6121 134.046 37.3152 133.265 37.7781C132.483 38.2409 131.566 38.4718 130.514 38.4707C129.004 38.4707 127.803 38.0121 126.909 37.0948C126.015 36.1776 125.568 34.953 125.568 33.4209C125.568 31.9491 126.03 30.7397 126.954 29.7925C127.878 28.8454 129.065 28.3719 130.515 28.3719C132.031 28.3719 133.214 28.804 134.064 29.6683C134.913 30.5326 135.336 31.7439 135.333 33.3022V33.7086ZM133.098 32.2628C133.012 31.5898 132.754 31.0767 132.324 30.7234C131.894 30.3701 131.304 30.1925 130.556 30.1904C129.847 30.1904 129.278 30.362 128.847 30.7053C128.417 31.0486 128.116 31.5668 127.944 32.2597L133.098 32.2628Z" fill="white"/>
</svg>
